<?xml version="1.0" encoding="UTF-8" standalone="no"?>
<!-- Created with Inkscape (http://www.inkscape.org/) -->

<svg
   version="1.1"
   id="svg2"
   width="5333.3335"
   height="5333.3335"
   viewBox="0 0 5333.3335 5333.3335"
   sodipodi:docname="datacenter.eps"
   xmlns:inkscape="http://www.inkscape.org/namespaces/inkscape"
   xmlns:sodipodi="http://sodipodi.sourceforge.net/DTD/sodipodi-0.dtd"
   xmlns="http://www.w3.org/2000/svg"
   xmlns:svg="http://www.w3.org/2000/svg">
  <defs
     id="defs6" />
  <sodipodi:namedview
     id="namedview4"
     pagecolor="#ffffff"
     bordercolor="#000000"
     borderopacity="0.25"
     inkscape:showpageshadow="2"
     inkscape:pageopacity="0.0"
     inkscape:pagecheckerboard="0"
     inkscape:deskcolor="#d1d1d1" />
  <g
     id="g8"
     inkscape:groupmode="layer"
     inkscape:label="ink_ext_XXXXXX"
     transform="matrix(1.3333333,0,0,-1.3333333,0,5333.3333)">
    <g
       id="g10"
       transform="scale(0.1)">
      <path
         d="M 0,40000 H 40000 V 0 H 0 v 40000"
         style="fill:#ffffff;fill-opacity:1;fill-rule:nonzero;stroke:none"
         id="path12" />
      <path
         d="m 17194.4,33036.2 c -3744,0.1 -6751.7,-3101 -6860.9,-6936 -2579.46,-205.6 -4615.65,-2329.4 -4615.65,-4975 0,-2781.9 2236.58,-5031.2 5004.65,-5031.2 h 1407.9 c 154.3,0.2 279.5,125.3 279.6,279.7 -0.1,154.4 -125.3,279.5 -279.6,279.7 h -1407.9 c -2465.72,0 -4443.72,1988.7 -4443.72,4471.8 0,2436.2 1904.91,4395.2 4304.72,4468.8 150.7,5.2 270.2,128.9 270.3,279.7 0,7.9 0,17.1 0,25 -0.1,3640.4 2840.1,6575.8 6339,6576.6 h 1.8 c 2355.7,-0.3 4519.1,-1354 5615.6,-3523.5 70.2,-137.8 238.8,-192.7 376.6,-122.5 13.7,6.9 26.7,15 39,24.1 722.3,532.9 1585.7,818.5 2470.4,818.7 2163.3,0 3986.5,-1678.1 4235.9,-3918.7 13.4,-121.3 103.8,-219.9 223.4,-243.8 2038.7,-407 3565.7,-2204 3565.7,-4384.4 0,-2483.1 -1976.5,-4471.8 -4442.2,-4471.8 h -1409.4 c -154.4,-0.2 -279.5,-125.3 -279.7,-279.7 0.2,-154.4 125.3,-279.5 279.7,-279.7 H 29279 c 2768.1,0 5003.1,2249.3 5003.1,5031.2 0,2377.7 -1641.8,4341.6 -3846.9,4868.8 -359.7,2414.8 -2348.2,4237.5 -4739,4237.5 -0.6,0 -1.2,0 -1.8,0 -907.9,-0.2 -1778.5,-299.7 -2543.7,-795.3 -1211.8,2178.6 -3430.6,3556.7 -5875,3587.5 -3.1,0.6 -6.2,1.1 -9.4,1.6 -22.3,6.5 -45.4,10.2 -68.7,10.9 -1,0 -2,0 -3.1,0 h -0.1"
         style="fill:#0081a0;fill-opacity:1;fill-rule:nonzero;stroke:none"
         id="path14" />
      <path
         d="m 14035,19387.7 h 11929.7 c 191.1,0 336,-144.8 336,-335.9 v -2178.1 c 0,-191.1 -144.9,-336 -336,-336 H 14035 c -191,0 -335.9,144.9 -335.9,336 v 2178.1 c 0,191.1 144.9,335.9 335.9,335.9 z m 0,559.4 c -491.6,0 -896.8,-403.6 -896.8,-895.3 v -2178.1 c 0,-491.7 405.2,-896.9 896.8,-896.9 h 11929.7 c 491.7,0 896.9,405.2 896.9,896.9 v 2178.1 c 0,491.7 -405.2,895.3 -896.9,895.3 H 14035"
         style="fill:#0081a0;fill-opacity:1;fill-rule:nonzero;stroke:none"
         id="path16" />
      <path
         d="m 16030.7,17962.4 c 0,-263.7 -213.7,-477.4 -477.3,-477.4 -263.7,0 -477.4,213.7 -477.4,477.4 0,263.6 213.7,477.3 477.4,477.3 263.6,0 477.3,-213.7 477.3,-477.3"
         style="fill:#00ffff;fill-opacity:1;fill-rule:nonzero;stroke:none"
         id="path18" />
      <path
         d="m 15553.8,18159.6 c 112.3,0 196.9,-84.5 196.9,-196.9 0,-112.3 -84.6,-198.4 -196.9,-198.4 -112.3,0 -198.4,86.1 -198.4,198.4 0,112.4 86.1,196.9 198.4,196.9 z m 0,559.4 c -415,0 -757.8,-341.3 -757.8,-756.3 0,-414.9 342.8,-757.8 757.8,-757.8 415,0 756.2,342.9 756.2,757.8 0,415 -341.2,756.3 -756.2,756.3"
         style="fill:#0081a0;fill-opacity:1;fill-rule:nonzero;stroke:none"
         id="path20" />
      <path
         d="m 22460,17969 c -154.4,-0.2 -279.5,-125.3 -279.6,-279.7 -0.7,-154.6 124.1,-280.6 278.7,-281.2 0.3,0 0.6,0 0.9,0 h 796.9 c 154.7,0.1 279.9,125.6 279.7,280.3 0,0.3 0,0.6 0,0.9 -0.2,154.4 -125.3,279.5 -279.7,279.7 H 22460"
         style="fill:#0081a0;fill-opacity:1;fill-rule:nonzero;stroke:none"
         id="path22" />
      <path
         d="m 24102.2,17969 c -154.4,-0.2 -279.5,-125.3 -279.7,-279.7 -0.7,-154.6 124.1,-280.6 278.8,-281.2 0.3,0 0.6,0 0.9,0 h 796.9 c 154.6,0.1 279.9,125.6 279.7,280.3 0,0.3 0,0.6 0,0.9 -0.2,154.4 -125.3,279.5 -279.7,279.7 h -796.9"
         style="fill:#0081a0;fill-opacity:1;fill-rule:nonzero;stroke:none"
         id="path24" />
      <path
         d="m 14035,15022.1 h 11929.7 c 191.1,0 336,-144.8 336,-335.9 v -2178.1 c 0,-191.1 -144.9,-336 -336,-336 H 14035 c -191,0 -335.9,144.9 -335.9,336 v 2178.1 c 0,191.1 144.9,335.9 335.9,335.9 z m 0,561 c -491.6,0 -896.8,-405.3 -896.8,-896.9 v -2178.1 c 0,-491.7 405.2,-895.4 896.8,-895.4 h 11929.7 c 491.7,0 896.9,403.7 896.9,895.4 v 2178.1 c 0,491.6 -405.2,896.9 -896.9,896.9 H 14035"
         style="fill:#0081a0;fill-opacity:1;fill-rule:nonzero;stroke:none"
         id="path26" />
      <path
         d="m 16030.7,13597.5 c 0,-263.6 -213.7,-477.3 -477.3,-477.3 -263.7,0 -477.4,213.7 -477.4,477.3 0,263.7 213.7,477.4 477.4,477.4 263.6,0 477.3,-213.7 477.3,-477.4"
         style="fill:#00ffff;fill-opacity:1;fill-rule:nonzero;stroke:none"
         id="path28" />
      <path
         d="m 15553.8,13795.6 c 112.3,0 196.9,-86.2 196.9,-198.5 0,-112.3 -84.6,-196.9 -196.9,-196.9 -112.3,0 -198.4,84.6 -198.4,196.9 0,112.3 86.1,198.5 198.4,198.5 z m 0,559.3 c -415,0 -757.8,-342.8 -757.8,-757.8 0,-414.9 342.8,-756.2 757.8,-756.2 415,0 756.2,341.3 756.2,756.2 0,415 -341.2,757.8 -756.2,757.8"
         style="fill:#0081a0;fill-opacity:1;fill-rule:nonzero;stroke:none"
         id="path30" />
      <path
         d="m 22460,13603.4 c -154.4,-0.2 -279.5,-125.3 -279.6,-279.7 0.1,-154.4 125.2,-279.5 279.6,-279.7 h 796.9 c 154.4,0.2 279.5,125.3 279.7,279.7 -0.2,154.4 -125.3,279.5 -279.7,279.7 H 22460"
         style="fill:#0081a0;fill-opacity:1;fill-rule:nonzero;stroke:none"
         id="path32" />
      <path
         d="m 24102.2,13603.4 c -154.4,-0.2 -279.5,-125.3 -279.7,-279.7 0.2,-154.4 125.3,-279.5 279.7,-279.7 h 796.9 c 154.4,0.2 279.5,125.3 279.7,279.7 -0.2,154.4 -125.3,279.5 -279.7,279.7 h -796.9"
         style="fill:#0081a0;fill-opacity:1;fill-rule:nonzero;stroke:none"
         id="path34" />
      <path
         d="m 14035,23751.8 h 11929.7 c 191.1,0 336,-144.8 336,-335.9 v -2176.6 c 0,-191.1 -144.9,-337.5 -336,-337.5 H 14035 c -191,0 -335.9,146.4 -335.9,337.5 v 2176.6 c 0,191.1 144.9,335.9 335.9,335.9 z m 0,560.9 c -491.6,0 -896.8,-405.2 -896.8,-896.8 v -2176.6 c 0,-491.6 405.2,-896.9 896.8,-896.9 h 11929.7 c 491.7,0 896.9,405.3 896.9,896.9 v 2176.6 c 0,491.6 -405.2,896.8 -896.9,896.8 H 14035"
         style="fill:#0081a0;fill-opacity:1;fill-rule:nonzero;stroke:none"
         id="path36" />
      <path
         d="m 16030.7,22327.3 c 0,-263.7 -213.7,-477.4 -477.3,-477.4 -263.7,0 -477.4,213.7 -477.4,477.4 0,263.6 213.7,477.3 477.4,477.3 263.6,0 477.3,-213.7 477.3,-477.3"
         style="fill:#00ffff;fill-opacity:1;fill-rule:nonzero;stroke:none"
         id="path38" />
      <path
         d="m 15553.8,22525.2 c 112.3,0 196.9,-86.1 196.9,-198.4 0,-112.3 -84.6,-196.9 -196.9,-196.9 -112.3,0 -198.4,84.6 -198.4,196.9 0,112.3 86.1,198.4 198.4,198.4 z m 0,559.4 c -415,0 -757.8,-342.8 -757.8,-757.8 0,-415 342.8,-756.2 757.8,-756.2 415,0 756.2,341.2 756.2,756.2 0,415 -341.2,757.8 -756.2,757.8"
         style="fill:#0081a0;fill-opacity:1;fill-rule:nonzero;stroke:none"
         id="path40" />
      <path
         d="m 22460,22333.1 c -154.4,-0.2 -279.5,-125.3 -279.6,-279.7 0.1,-154.4 125.2,-279.5 279.6,-279.7 h 796.9 c 154.4,0.2 279.5,125.3 279.7,279.7 -0.2,154.4 -125.3,279.5 -279.7,279.7 H 22460"
         style="fill:#0081a0;fill-opacity:1;fill-rule:nonzero;stroke:none"
         id="path42" />
      <path
         d="m 24102.2,22333.1 c -154.4,-0.2 -279.5,-125.3 -279.7,-279.7 0.2,-154.4 125.3,-279.5 279.7,-279.7 h 796.9 c 154.4,0.2 279.5,125.3 279.7,279.7 -0.2,154.4 -125.3,279.5 -279.7,279.7 h -796.9"
         style="fill:#0081a0;fill-opacity:1;fill-rule:nonzero;stroke:none"
         id="path44" />
      <path
         d="m 20000.7,11048.7 c -154.7,0.7 -280.6,-124.1 -281.3,-278.8 0,-0.3 0,-0.6 0,-0.9 V 8265.9 c 0.2,-154.7 125.7,-279.9 280.3,-279.7 0.3,0 0.6,0 1,0 154.4,0.2 279.5,125.3 279.7,279.7 V 10769 c -0.2,154.4 -125.3,279.5 -279.7,279.7"
         style="fill:#0081a0;fill-opacity:1;fill-rule:nonzero;stroke:none"
         id="path46" />
      <path
         d="m 14305.4,8329.9 c -154.7,-0.1 -279.9,-125.7 -279.7,-280.3 0,-0.3 0,-0.6 0,-0.9 0.1,-154.4 125.3,-279.5 279.7,-279.7 h 11389 c 154.4,0.2 279.5,125.3 279.7,279.7 0.7,154.6 -124.1,280.5 -278.7,281.2 -0.3,0 -0.7,0 -1,0 h -11389"
         style="fill:#0081a0;fill-opacity:1;fill-rule:nonzero;stroke:none"
         id="path48" />
      <path
         d="m 20804.9,8049.3 c 0,-444.5 -360.4,-804.8 -804.9,-804.8 -444.5,0 -804.8,360.3 -804.8,804.8 0,444.5 360.3,804.9 804.8,804.9 444.5,0 804.9,-360.4 804.9,-804.9"
         style="fill:#00ffff;fill-opacity:1;fill-rule:nonzero;stroke:none"
         id="path50" />
      <path
         d="m 20000.7,8573.7 c 293.1,0 523.4,-231.8 523.4,-525 0,-293.2 -230.3,-523.4 -523.4,-523.4 -293.2,0 -525,230.2 -525,523.4 0,293.2 231.8,525 525,525 z m 0,560.9 c -595.9,0 -1086,-490.1 -1086,-1085.9 0,-595.8 490.1,-1084.4 1086,-1084.4 595.8,0 1084.3,488.6 1084.3,1084.4 0,595.8 -488.5,1085.9 -1084.3,1085.9"
         style="fill:#0081a0;fill-opacity:1;fill-rule:nonzero;stroke:none"
         id="path52" />
    </g>
  </g>
</svg>
