<?xml version="1.0" encoding="UTF-8" standalone="no"?>
<!-- Created with Inkscape (http://www.inkscape.org/) -->

<svg
   version="1.1"
   id="svg2"
   width="1600"
   height="1600"
   viewBox="0 0 1600 1600"
   sodipodi:docname="handheld2.eps"
   xmlns:inkscape="http://www.inkscape.org/namespaces/inkscape"
   xmlns:sodipodi="http://sodipodi.sourceforge.net/DTD/sodipodi-0.dtd"
   xmlns="http://www.w3.org/2000/svg"
   xmlns:svg="http://www.w3.org/2000/svg">
  <defs
     id="defs6" />
  <sodipodi:namedview
     id="namedview4"
     pagecolor="#ffffff"
     bordercolor="#000000"
     borderopacity="0.25"
     inkscape:showpageshadow="2"
     inkscape:pageopacity="0.0"
     inkscape:pagecheckerboard="0"
     inkscape:deskcolor="#d1d1d1" />
  <g
     id="g8"
     inkscape:groupmode="layer"
     inkscape:label="ink_ext_XXXXXX"
     transform="matrix(1.3333333,0,0,-1.3333333,0,1600)">
    <g
       id="g10"
       transform="scale(0.1)">
      <path
         d="M 12000,0 H 0 V 12000 H 12000 V 0"
         style="fill:#ffffff;fill-opacity:1;fill-rule:nonzero;stroke:none"
         id="path12" />
      <path
         d="m 8920.39,3835.18 -313.6,631.18 c -124.69,282.13 -547.02,256.54 -605.51,-8.73 -184.16,209.11 -566.95,136.78 -582.7,-153.59 -152.26,260.43 -563.09,218.2 -616.37,-57.88 l -607.64,1364.42 c -160.5,376.29 -818.43,191.71 -610.96,-260.55 l 1070.36,-2354.68 -93.81,76.25 c -453,368.21 -1096.62,208.4 -999.45,-77.42 L 6720.8,1952.3 c 423.18,-327.7 989.1,-327.2 1299.2,-262.3 515.11,124.9 1586.86,619.72 900.39,2145.18 z m -1982.26,994.86 v -272.12 c 42.79,13.03 88.76,20.12 136.83,20.12 37.91,0 74.85,-4.23 110.27,-12.37 v 419.1 l -102.68,-82.09 c -42.58,-34.06 -91.97,-58.68 -144.42,-72.64 z M 5855.49,4098.56 c 0,96.6 -78.37,174.91 -175.01,174.91 -96.73,0 -174.99,-78.31 -174.99,-174.91 0,-96.71 78.26,-175.04 174.99,-175.04 96.64,0 175.01,78.33 175.01,175.04 z M 5212.6,9143.94 c 0,-27.5 18.89,-50 41.96,-50 h 851.81 c 23.09,0 41.99,22.5 41.99,50 0,27.53 -18.9,50 -41.99,50 h -851.81 c -23.07,0 -41.96,-22.47 -41.96,-50 z M 6139.82,3835.18 H 4756.21 c -319.28,0 -580.46,261.2 -580.46,580.49 V 5468.2 l 221.52,1023.31 c 54.36,250.96 11.83,501.46 -111.01,653.75 -32.38,40.15 -69.74,72.5 -110.51,96.45 v 1550.7 c 0,319.3 261.18,580.55 580.46,580.55 h 1848.58 c 319.26,0 580.44,-261.25 580.44,-580.55 V 6893.29 c -37.42,-14.39 -72.67,-34.4 -104.2,-59.6 l -142.9,-114.31 v 2120.53 c 0,37.71 -30.93,68.63 -68.69,68.63 H 4491.49 c -37.76,0 -68.66,-30.92 -68.66,-68.63 V 4414.69 c 0,-37.77 30.9,-68.68 68.66,-68.68 h 1414.65 z m 1419.35,2883.19 c -101.34,127.3 -288.54,148.86 -415.67,47.22 l -367.43,-293.87 c -127.11,-101.64 -148.54,-288.29 -47.21,-415.68 101.37,-127.27 288.85,-148.63 415.75,-47.13 l 367.38,293.7 c 126.84,101.52 148.51,288.37 47.18,415.76 v 0 z m -60.41,-986.91 c -101.41,127.39 -288.62,148.8 -415.74,47.16 l -431.39,-344.97 c -127.12,-101.64 -148.62,-288.38 -47.24,-415.68 101.37,-127.35 288.88,-148.63 415.71,-47.19 l 431.41,344.94 c 126.88,101.45 148.55,288.38 47.25,415.74 v 0 z m -568.98,38.73 c 20.54,25.65 48.1,39.74 49.91,49.83 2.42,13.54 -38.61,30.96 -49.71,49.81 z M 4736.21,3715.18 c -375.21,0 -680.46,305.27 -680.46,680.49 v 1063.24 l 223.79,1033.78 c 91.73,423.5 -123.79,787.31 -432.58,647.41 0,0 -75.65,-348.46 -240.88,-587.79 C 3280,6080 3192.49,5518.85 3091.5,5170 2980.48,4786.47 3045.79,4070 3300,3660 c 202.88,-327.2 649.21,-674.63 1308.15,-644.86 420.33,-1.35 1072.34,344.86 1359.19,700.04 z m 2849.86,3628.81 -300.84,-234.77 v 738.73 c 118.91,51.27 263.6,17.92 348.06,-88.21 101.36,-127.31 78.85,-312.98 -47.22,-415.75"
         style="fill:#052730;fill-opacity:1;fill-rule:evenodd;stroke:none"
         id="path14" />
    </g>
  </g>
</svg>
